<svg width="12" height="14" viewBox="0 0 12 14" fill="none" xmlns="http://www.w3.org/2000/svg">
<path d="M4.40039 11.0002C4.03372 11.0002 3.71984 10.8696 3.45872 10.6085C3.19761 10.3474 3.06706 10.0335 3.06706 9.66683V1.66683C3.06706 1.30016 3.19761 0.986274 3.45872 0.725163C3.71984 0.464052 4.03372 0.333496 4.40039 0.333496H10.4004C10.7671 0.333496 11.0809 0.464052 11.3421 0.725163C11.6032 0.986274 11.7337 1.30016 11.7337 1.66683V9.66683C11.7337 10.0335 11.6032 10.3474 11.3421 10.6085C11.0809 10.8696 10.7671 11.0002 10.4004 11.0002H4.40039ZM4.40039 9.66683H10.4004V1.66683H4.40039V9.66683ZM1.73372 13.6668C1.36706 13.6668 1.05317 13.5363 0.792057 13.2752C0.530946 13.014 0.400391 12.7002 0.400391 12.3335V3.00016H1.73372V12.3335H9.06706V13.6668H1.73372Z" fill="#343435"/>
</svg>
