<svg width="14" height="13" viewBox="0 0 14 13" fill="none" xmlns="http://www.w3.org/2000/svg">
<path d="M1.66878 13.0002C1.30212 13.0002 0.988227 12.8696 0.727116 12.6085C0.466005 12.3474 0.335449 12.0335 0.335449 11.6668V4.3335C0.335449 3.96683 0.466005 3.65294 0.727116 3.39183C0.988227 3.13072 1.30212 3.00016 1.66878 3.00016H4.33545V1.66683C4.33545 1.30016 4.466 0.986274 4.72712 0.725163C4.98823 0.464052 5.30212 0.333496 5.66878 0.333496H8.33545C8.70212 0.333496 9.016 0.464052 9.27712 0.725163C9.53823 0.986274 9.66878 1.30016 9.66878 1.66683V3.00016H12.3354C12.7021 3.00016 13.016 3.13072 13.2771 3.39183C13.5382 3.65294 13.6688 3.96683 13.6688 4.3335V11.6668C13.6688 12.0335 13.5382 12.3474 13.2771 12.6085C13.016 12.8696 12.7021 13.0002 12.3354 13.0002H1.66878ZM5.66878 3.00016H8.33545V1.66683H5.66878V3.00016ZM12.3354 9.00016H9.00212V10.3335H5.00212V9.00016H1.66878V11.6668H12.3354V9.00016ZM6.33545 9.00016H7.66878V7.66683H6.33545V9.00016ZM1.66878 7.66683H5.00212V6.3335H9.00212V7.66683H12.3354V4.3335H1.66878V7.66683Z" fill="#1C1B1F"/>
</svg>
